<?xml version="1.0" encoding="UTF-8" standalone="no"?>
<!-- Created with Inkscape (http://www.inkscape.org/) -->

<svg
   xmlns:dc="http://purl.org/dc/elements/1.1/"
   xmlns:cc="http://creativecommons.org/ns#"
   xmlns:rdf="http://www.w3.org/1999/02/22-rdf-syntax-ns#"
   xmlns:svg="http://www.w3.org/2000/svg"
   xmlns="http://www.w3.org/2000/svg"
   xmlns:sodipodi="http://sodipodi.sourceforge.net/DTD/sodipodi-0.dtd"
   xmlns:inkscape="http://www.inkscape.org/namespaces/inkscape"
   width="36.188293mm"
   height="19.756559mm"
   viewBox="0 0 128.22624 70.003557"
   id="svg11620"
   version="1.1"
   inkscape:version="0.91 r13725"
   sodipodi:docname="counter.svg">
  <defs
     id="defs11622" />
  <sodipodi:namedview
     id="base"
     pagecolor="#ffffff"
     bordercolor="#666666"
     borderopacity="1.0"
     inkscape:pageopacity="0.0"
     inkscape:pageshadow="2"
     inkscape:zoom="2.3214844"
     inkscape:cx="39.065473"
     inkscape:cy="-26.146406"
     inkscape:document-units="px"
     inkscape:current-layer="layer1"
     showgrid="false"
     fit-margin-top="0"
     fit-margin-left="0"
     fit-margin-right="0"
     fit-margin-bottom="0"
     inkscape:window-width="1920"
     inkscape:window-height="1029"
     inkscape:window-x="0"
     inkscape:window-y="25"
     inkscape:window-maximized="1" />
  <metadata
     id="metadata11625">
    <rdf:RDF>
      <cc:Work
         rdf:about="">
        <dc:format>image/svg+xml</dc:format>
        <dc:type
           rdf:resource="http://purl.org/dc/dcmitype/StillImage" />
        <dc:title></dc:title>
      </cc:Work>
    </rdf:RDF>
  </metadata>
  <g
     inkscape:label="Calque 1"
     inkscape:groupmode="layer"
     id="layer1"
     transform="translate(-218.4647,-384.14487)">
    <g
       style="display:inline"
       transform="translate(-267.67457,325.16174)"
       id="g16313">
      <path
         inkscape:connector-curvature="0"
         style="color:#000000;display:inline;overflow:visible;visibility:visible;fill:#fffdf2;fill-opacity:1;fill-rule:nonzero;stroke:none;enable-background:accumulate"
         d="m 493.58398,85.419922 c -0.72031,0.242485 -0.19354,1.118148 -0.16406,1.640625 0.18241,0.634855 0.21413,1.291227 0.40235,1.917969 0.46802,0.490317 0.89286,-0.219492 0.91601,-0.66211 0.15072,-0.740197 0.40367,-1.455656 0.67774,-2.15625 -0.0605,-0.711448 -1.03008,-0.553064 -1.53516,-0.720703 -0.0988,-0.01266 -0.19699,-0.02731 -0.29688,-0.01953 z m 2.56836,0.474609 c -0.86437,0.258609 -0.88647,1.395024 -1.10937,2.119141 -0.89569,4.962761 -0.61869,10.039298 -0.35547,15.046878 0.15956,2.14504 0.51138,4.28145 0.96289,6.38281 -0.25298,-0.83192 -0.50521,-1.66691 -0.60937,-2.51563 -0.0936,-0.22467 -0.33301,-0.28978 -0.55274,-0.22461 -0.55494,0.48781 -0.37129,1.38018 -0.51953,2.04493 -0.019,0.76119 -0.3974,1.49853 -0.30273,2.25 0.45535,0.60882 0.69026,-0.4203 1.10156,-0.18555 0.34867,0.18554 1.03724,0.30124 1.16406,-0.11719 0.0291,0.12384 0.0543,0.24953 0.084,0.37305 0.53547,0.4802 1.42835,0.35843 2.1211,0.51758 6.37365,0.62929 12.77629,0.88621 19.13867,1.55078 7.30279,0.67057 14.56433,1.69013 21.85352,2.5332 0.28713,0.0733 0.54589,-0.041 0.6914,-0.23828 0.41761,0.68284 1.41703,0.39847 2.08008,0.60938 3.77406,0.44631 7.54548,0.966 11.33203,1.2832 0.6974,-0.28291 0.20467,-1.19229 0.27344,-1.75195 -0.31963,-5.05767 0.0553,-10.12942 0.44336,-15.17969 0.23937,-2.998684 0.6341,-5.96651 1.20703,-8.916018 -0.0311,-0.753668 -1.0104,-0.552692 -1.52344,-0.658203 -0.74266,-0.207254 -1.42869,0.0926 -2.01172,0.507813 -1.6644,0.966524 -3.83959,1.434384 -5.60547,0.416016 -0.86459,-0.395524 -1.41666,-1.250556 -2.23046,-1.681641 l -0.11133,0.02344 -0.043,0.0098 c -0.85877,0.483394 -1.88696,0.496434 -2.78906,0.769531 -0.0668,0.126572 -0.1159,0.260005 -0.16016,0.394531 0.0102,-0.05166 0.017,-0.104641 0.0273,-0.15625 -0.20848,-0.677029 -1.1062,-0.566499 -1.60937,-0.919921 -0.72207,-0.393416 -1.45572,-0.750802 -2.30469,-0.679688 -11.13848,-0.880928 -22.30034,-1.385029 -33.4043,-2.576172 -2.42117,-0.284511 -4.83866,-0.615172 -7.23828,-1.03125 z m 59.54297,5.121094 -0.11133,0.0293 -0.0664,0.01953 c -0.41445,0.943002 -0.36075,2.057346 -0.58789,3.068359 -1.08336,7.564256 -1.38952,15.218846 -1.31836,22.853516 0.25915,0.69428 1.21805,0.42379 1.80664,0.57812 4.31236,0.33651 8.62698,0.74586 12.95312,0.83008 0.44087,0.002 1.29102,0.10264 1.16407,-0.59961 -0.89125,-5.61666 -0.97746,-11.33497 -0.70508,-17.00781 0.15267,-2.733204 0.59179,-5.429295 0.97851,-8.132811 -0.16915,-0.706326 -1.10534,-0.369192 -1.61914,-0.535156 -4.15556,-0.396559 -8.3411,-0.779236 -12.49414,-1.103516 z m 14.60938,1.353516 c -0.65602,0.315857 -0.35988,1.25492 -0.57227,1.84375 -0.88869,5.855729 -1.06717,11.802559 -0.63672,17.707029 0.15325,2.1032 0.26804,4.23138 0.50196,6.3125 0.53869,0.49293 1.4093,0.21046 2.08203,0.32617 3.66224,0.0128 7.33096,0.14876 10.99023,0.006 0.43341,-0.0116 0.51878,-0.36975 0.47461,-0.71093 0.0272,0.11218 0.038,0.22714 0.0723,0.33789 0.41418,0.60903 1.30263,0.31024 1.91992,0.42382 3.35381,0.10871 6.80641,-0.18668 10.01953,0.88282 0.41249,0.16727 1.19131,0.66274 1.35742,-0.0527 -0.37128,-2.13264 -0.0732,-4.28844 0.0195,-6.45703 0.38958,-5.30544 0.5286,-10.63439 0.72266,-15.945311 0.0189,-0.513733 0.3313,-1.412694 -0.48242,-1.382813 -4.19562,-0.422316 -8.35752,-1.180269 -12.55664,-1.583984 l 0,0.002 c -0.66179,0.257727 -0.5513,1.175641 -0.81055,1.742187 -1.61707,5.907701 -0.9807,12.095441 -0.64063,18.123051 0.10767,0.86408 0.10436,1.75453 0.17579,2.62891 -0.61197,-4.72015 -0.91758,-9.49547 -0.76758,-14.24219 0.0938,-2.723717 0.64218,-5.386022 1.46679,-7.980474 -0.0682,-0.744309 -1.07335,-0.463104 -1.57421,-0.640625 -3.91747,-0.466871 -7.83394,-0.98289 -11.76172,-1.339843 z m -29.83203,0.0332 c -0.0415,0.440444 -0.0683,0.885685 -0.16602,1.304687 -0.60626,4.301503 -1.20935,8.624302 -1.08984,12.980472 0.0115,1.10546 0.0218,2.21747 0.0508,3.32812 -0.23414,-2.89453 -0.23,-5.79624 0.043,-8.68945 0.2565,-2.981993 0.63057,-5.98722 1.16211,-8.923829 z m 42.56054,24.935549 c 0.0204,0.12649 0.0528,0.24991 0.0801,0.375 -0.0182,-0.0758 -0.034,-0.15487 -0.0606,-0.21875 -0.007,-0.052 -0.0124,-0.10428 -0.0195,-0.15625 z"
         id="path16118" />
      <path
         style="color:#000000;display:inline;overflow:visible;visibility:visible;fill:#a0dcff;fill-opacity:1;fill-rule:nonzero;stroke:none;enable-background:accumulate"
         d="m 488.20627,79.848821 c -0.75606,0.05745 -0.41093,1.025348 -0.45591,1.5142 0.50183,7.95639 0.76199,15.912193 0.7717,23.887979 0.0476,3.7803 -0.0298,7.58217 0.0815,11.34866 0.35221,0.57651 1.24616,0.19554 1.82609,0.33358 7.26328,0.13408 14.48484,1.20768 21.71919,1.97959 15.3023,1.80905 30.616,3.58241 45.99467,4.60927 13.04981,0.95138 26.12554,1.5112 39.16431,2.58322 1.2933,0.10478 2.65153,0.21837 3.91487,-0.10156 0.51458,-0.57607 0.38927,-1.49206 0.26995,-2.20298 0.37918,-0.71801 0.17154,-1.71463 0.31617,-2.53867 0.66888,-8.25149 0.80441,-16.53503 1.34076,-24.790231 0.14557,-1.897694 0.2926,-3.834447 0.69926,-5.705558 0.54762,0.09936 1.04356,-0.668556 0.45853,-0.977966 -0.93256,-0.182468 -1.83425,0.43145 -2.78355,0.386523 -8.10957,0.337494 -16.21388,-0.469789 -24.29196,-1.199501 -6.76553,-0.625463 -13.50858,-1.507084 -20.27109,-2.211198 -0.7477,0.376621 -1.15592,1.25147 -1.7748,1.818442 -0.58489,0.733553 0.57817,0.875969 1.09455,0.826544 10.59508,0.894863 21.17704,1.935033 31.69004,3.555918 3.60298,0.640549 7.2609,1.162558 10.7125,2.314821 0.31451,0.334763 0.0134,0.942218 0.0787,1.361324 -0.17169,5.339782 -0.3502,10.667032 -0.69204,15.993442 -0.12974,2.19612 -0.12097,4.39283 -0.27281,6.58159 -0.46769,0.0877 -0.26005,0.69776 -0.74559,0.74093 -2.34416,-0.12887 -4.81131,0.0228 -7.1991,0.0389 -6.38659,0.16439 -12.78178,0.14986 -19.1704,0.28968 -0.43573,0.0834 -0.81051,0.0748 -1.23145,-0.0635 -5.19098,-0.2744 -10.37166,-0.51633 -15.54544,-1.07686 -16.26131,-1.68707 -32.44221,-4.20541 -48.76175,-5.3816 -3.20967,-0.33904 -6.51106,-0.44152 -9.62399,-1.39745 -0.6761,-0.15143 -1.21272,-0.74568 -1.90627,-0.77901 -0.32543,0.0201 -0.53033,0.8301 -0.57416,0.17707 -0.43111,-1.95298 -0.11479,-3.97846 -0.17564,-5.96033 0.005,-4.5389 0.1386,-9.088515 -0.1657,-13.619896 -0.18995,-2.06265 -0.47879,-4.200058 -0.77293,-6.198721 0.89442,-0.138558 0.68859,-1.248646 0.88502,-1.890555 12.44998,1.778326 25.02572,2.377307 37.55766,3.300382 1.6364,0.06292 3.28424,0.329012 4.91645,0.274373 0.59034,-0.505921 -0.2412,-1.091152 -0.43735,-1.606041 -0.47531,-0.708064 -0.69187,-1.578516 -1.26908,-2.198195 -11.08681,-1.280603 -22.20573,-2.292499 -33.34112,-3.055447 -4.01418,-0.269862 -8.00802,-0.618792 -12.01397,-0.961594 l -0.0158,4.45e-4 z"
         id="path16107"
         inkscape:connector-curvature="0" />
      <path
         style="color:#000000;display:inline;overflow:visible;visibility:visible;fill:#609ec3;fill-opacity:1;fill-rule:nonzero;stroke:none;enable-background:accumulate"
         d="m 611.76569,87.532164 c -2.52879,0.361213 -4.71507,1.816598 -6.91691,3.009723 -0.42323,0.628779 -0.21716,1.501731 -0.36335,2.22277 -0.67629,9.876863 -0.82108,19.783343 -1.60869,29.646303 0.0411,0.79943 -0.27756,1.68933 0.0779,2.43799 0.56733,0.50813 1.14248,-0.33722 1.63412,-0.58062 1.78873,-1.26167 3.68062,-2.40641 5.43643,-3.69356 0.25877,-0.88047 -0.0408,-1.89856 0.0489,-2.83397 0.0662,-0.37776 0.50669,-0.63824 0.37825,-1.09271 -0.45945,-5.9885 -0.34384,-12.02066 0.35306,-17.977029 0.40396,-3.562439 1.10606,-7.083305 1.56551,-10.63635 0.0362,-0.33747 -0.3031,-0.540746 -0.60528,-0.502547 z"
         id="path16111"
         inkscape:connector-curvature="0" />
      <path
         inkscape:connector-curvature="0"
         style="color:#000000;display:inline;overflow:visible;visibility:visible;fill:#609ec3;fill-opacity:1;fill-rule:nonzero;stroke:none;enable-background:accumulate"
         d="m 501.25391,74.880859 -0.16016,0.01563 -0.0352,0.0039 c -2.87237,1.102465 -5.84077,2.061559 -8.62695,3.326171 -0.35354,1.073886 1.48178,0.584852 2.15234,0.779297 12.70592,0.833961 25.41898,1.861527 38.0586,3.271485 0.83086,-0.40328 0.0558,-1.499536 0.14453,-2.144532 -0.0899,-0.666669 -0.049,-1.769593 -1.01758,-1.675781 -10.15288,-1.350587 -20.39921,-1.941139 -30.51562,-3.576172 z m 58.24218,7.197266 c -0.99353,0.35663 -0.87328,1.764043 -1.31054,2.5625 -0.28676,1.044365 1.24025,0.774551 1.86914,0.962891 13.47714,1.661384 27.01002,2.87672 40.5664,3.625 1.07281,0.02837 2.13886,0.193271 3.17969,0.328125 1.33806,-0.30614 2.27456,-1.46657 3.53711,-1.978516 0.6168,-0.982584 -0.93998,-0.727795 -1.53906,-0.753906 -10.27165,-0.27251 -20.51534,-1.287979 -30.71094,-2.654297 -5.19944,-0.662665 -10.40772,-1.324875 -15.5918,-2.091797 z"
         id="path16113" />
      <path
         style="color:#000000;display:inline;overflow:visible;visibility:visible;fill:#000000;fill-opacity:1;fill-rule:nonzero;stroke:none;enable-background:accumulate"
         id="path15918"
         d="m 493.26083,85.243026 c 0.99533,2.89916 1.21127,5.99991 1.43146,9.03472 0.26779,4.92374 0.15417,9.859064 -0.39071,14.758584 -0.23585,1.20079 -0.29442,1.88964 -0.77055,2.98648 -0.13387,0.30839 -0.33624,0.58227 -0.50436,0.87341 0,0 -0.0512,-0.006 -0.0512,-0.006 l 0,0 c -0.40864,-1.31767 -0.62043,-2.58199 -0.56044,-3.97806 0.0967,-4.82582 0.38486,-9.655094 0.10064,-14.480664 -0.20001,-2.91176 -0.46072,-5.82106 -1.02836,-8.68805 0,0 1.77349,-0.50045 1.77349,-0.50045 z"
         inkscape:connector-curvature="0" />
      <path
         style="color:#000000;display:inline;overflow:visible;visibility:visible;fill:#000000;fill-opacity:1;fill-rule:nonzero;stroke:none;enable-background:accumulate"
         id="path15944"
         d="m 492.52469,83.694126 c 2.88236,0.41312 5.75186,0.89722 8.64232,1.26001 4.20056,0.46187 8.4145,0.78292 12.61469,1.24878 1.29058,0.14865 2.57073,0.36086 3.86318,0.49286 0.32832,0.0335 0.65574,0.0893 0.98575,0.0924 0.30972,0.003 0.61747,-0.0498 0.92621,-0.0747 0,0 0.0188,0.048 0.0188,0.048 l 0,0 c -0.6547,0.48864 -1.04978,0.85268 -1.84391,1.14134 -1.3222,0.4806 -2.77505,0.40375 -4.1487,0.33442 -4.23433,-0.35751 -8.46618,-0.76897 -12.68851,-1.24548 -2.90323,-0.41157 -5.80868,-0.86365 -8.64897,-1.60606 0,0 0.2791,-1.69149 0.2791,-1.69149 z"
         inkscape:connector-curvature="0" />
      <path
         style="color:#000000;display:inline;overflow:visible;visibility:visible;fill:#000000;fill-opacity:1;fill-rule:nonzero;stroke:none;enable-background:accumulate"
         id="path16014"
         d="m 494.45788,110.34504 c 2.4505,0.98641 5.20043,1.0773 7.81237,1.27145 1.25746,0.0935 2.51615,0.17091 3.77423,0.25636 13.74441,0.82013 27.37409,2.80108 41.02685,4.45829 8.92709,1.05668 17.89897,1.7781 26.89413,1.92307 3.03305,0.0489 6.36851,0.006 9.41451,-0.0176 3.18269,0.0484 6.4136,-0.13008 9.57453,0.3562 1.07213,0.16494 2.29354,0.46653 3.2607,0.99612 0.24739,0.13547 0.4375,0.35074 0.65625,0.52611 0.21999,0.4209 0.25407,0.23698 -0.16539,0.53736 0,0 -0.0294,-0.0431 -0.0294,-0.0431 l 0,0 c 0.33295,-0.17668 0.31619,-0.0589 0.12431,-0.33594 -1.31016,-0.0828 -2.6163,-0.0197 -3.92874,-0.005 -3.15199,0.0364 -6.30362,0.0765 -9.45347,0.21093 -3.56121,0.0864 -5.89415,0.16947 -9.51501,0.13934 -9.08118,-0.0756 -18.13828,-0.8081 -27.14874,-1.87306 -13.61716,-1.66128 -27.21088,-3.57414 -40.9058,-4.55932 -2.32881,-0.20668 -4.49429,-0.3619 -6.79633,-0.68983 -1.98744,-0.28311 -4.11959,-0.60654 -5.67681,-1.93116 0,0 1.08177,-1.2207 1.08177,-1.2207 z"
         inkscape:connector-curvature="0" />
      <path
         style="color:#000000;display:inline;overflow:visible;visibility:visible;fill:#000000;fill-opacity:1;fill-rule:nonzero;stroke:none;enable-background:accumulate"
         id="path16018"
         d="m 599.21061,95.175953 c -0.21018,2.249107 -0.20893,4.510084 -0.25681,6.765307 -0.0725,3.74109 -0.3416,7.47558 -0.57381,11.21063 -0.22948,2.09216 -0.0838,4.1991 -0.20302,6.29345 -0.35316,0.1421 -0.34405,0.16768 -0.97361,-0.0641 -0.1191,-0.0438 0.30194,0.0483 0.38436,-0.0397 0.13419,-0.14306 0.10611,-0.35989 0.15917,-0.53983 0,0 0.0498,0.0115 0.0498,0.0115 l 0,0 c -0.0536,0.18134 -0.15119,0.35679 -0.16067,0.54405 -0.0109,0.21614 0.29165,0.50808 0.10058,0.6429 -0.76032,0.53647 -1.07714,0.0358 -1.42529,-0.31185 -0.69026,-2.06314 -0.14709,-4.52785 -0.14141,-6.64738 0.24408,-3.71036 0.51305,-7.42078 0.58657,-11.13779 0.0545,-2.373785 -0.0221,-4.784016 0.44552,-7.128719 0,0 2.00857,0.401468 2.00857,0.401468 z"
         inkscape:connector-curvature="0" />
      <path
         inkscape:connector-curvature="0"
         style="color:#000000;display:inline;overflow:visible;visibility:visible;fill:#000000;fill-opacity:1;fill-rule:nonzero;stroke:none;enable-background:accumulate"
         d="m 495.57812,84.271484 -0.13281,1.751954 c 6.92299,1.445834 13.99477,1.8438 21.00391,2.398437 7.79746,0.517945 15.59291,1.064314 23.38672,1.652344 l -3.67188,-2.404297 -0.10547,-0.214844 c -6.49835,-0.475657 -12.99921,-0.931346 -19.5,-1.359375 -5.0318,-0.378595 -6.60524,-0.474014 -11.39062,-0.908203 -2.8254,-0.256355 -5.64589,-0.626138 -8.47266,-0.855469 -0.37226,-0.03024 -0.74455,-0.04089 -1.11719,-0.06055 z m 58.01172,4.548828 -1.16406,1.265626 -1.86523,0.835937 c 5.67735,0.464009 11.35346,0.946335 17.02734,1.482422 6.42495,0.644412 12.84029,1.421831 19.24414,2.300781 3.20559,0.439978 6.39033,0.960858 9.60742,1.267578 0.35994,-0.007 1.80286,0.07969 2.28125,-0.24414 0.1607,-0.108784 0.22333,-0.328605 0.26563,-0.519532 0.006,-0.02781 -0.008,-0.05616 -0.0137,-0.08398 0.002,0.01366 -0.002,0.02318 -0.0215,0.02148 -0.1122,-0.0099 -0.14483,-0.186501 -0.24609,-0.238281 -0.63717,-0.325822 -1.41931,-0.292263 -2.04297,-0.628906 -9.53013,-2.166584 -19.25593,-3.128609 -28.92188,-4.199219 -4.71549,-0.449789 -9.43225,-0.863902 -14.15039,-1.259766 z M 598.97266,95.125 c 0,0 0.002,0 0.002,0 -1.8e-4,-9.67e-4 -0.002,-0.0029 -0.002,-0.0039 2.9e-4,0.0013 -2.8e-4,0.0026 0,0.0039 z m 0,-0.0039 c -0.0166,-0.07173 -0.0503,-0.143113 -0.0703,-0.214844 l -0.0488,0.01563 c 0.0239,0.05502 0.1075,0.153093 0.11914,0.199219 z m -54.03321,-5.59961 -2.94922,0.710938 c 1.34918,0.103349 2.69786,0.21776 4.04688,0.324219 l -1.09766,-1.035157 z"
         id="path16026" />
      <path
         style="color:#000000;display:inline;overflow:visible;visibility:visible;fill:#000000;fill-opacity:1;fill-rule:nonzero;stroke:none;enable-background:accumulate"
         id="path16034"
         d="m 488.0048,80.248921 c 0.18873,2.567984 0.33253,5.13931 0.47433,7.710265 0.28903,5.627988 0.34695,11.264237 0.41042,16.898234 -0.0105,4.19569 0.19771,8.40512 -0.13017,12.59316 -0.13789,0.78208 -0.11323,1.62887 -0.43458,2.37299 -0.0694,0.16059 -0.18868,0.29556 -0.26496,0.45298 0,0 -0.048,-0.0186 -0.048,-0.0186 l 0,0 c 0.0689,-0.24515 0.0359,-0.0317 -0.11509,-0.43629 -0.27992,-0.75032 -0.37474,-1.55252 -0.52012,-2.33467 -0.54618,-4.17509 -0.45446,-8.40522 -0.55059,-12.60649 -0.0622,-5.606893 -0.12395,-11.215182 -0.39007,-16.816995 -0.12359,-2.633427 -0.39675,-5.299888 -0.13163,-7.929076 0,0 1.7005,0.114512 1.7005,0.114512 z"
         inkscape:connector-curvature="0" />
      <path
         inkscape:connector-curvature="0"
         style="color:#000000;display:inline;overflow:visible;visibility:visible;fill:#000000;fill-opacity:1;fill-rule:nonzero;stroke:none;enable-background:accumulate"
         d="m 486.48828,78.203125 -0.21094,1.597656 c 0.37201,0.07135 0.7403,0.157284 1.11524,0.214844 2.94094,0.451465 5.94213,0.634641 8.91015,0.857422 3.87349,0.290744 7.74917,0.565301 11.62305,0.851562 8.89488,0.664191 17.75884,1.584004 26.60938,2.607422 l -1.11328,-2.279297 c -8.41848,-0.956736 -16.84874,-1.811124 -25.3086,-2.429687 -7.20307,-0.519753 -14.41159,-1.049614 -21.625,-1.419922 z m 70.68164,6.71875 -1.78515,1.943359 c 1.48244,0.183923 2.96477,0.368232 4.44726,0.550782 8.08049,0.984611 16.17808,1.872809 24.30078,2.523437 3.20727,0.256902 8.47379,0.623085 11.82227,0.703125 1.38215,0.03302 2.76589,-0.01273 4.14844,-0.01953 2.31557,-0.01574 3.93142,-0.486959 5.875,-1.457031 l -0.0215,-0.04883 c -0.34932,0.06366 -0.69032,0.193106 -1.04687,0.191406 -1.58999,-0.0077 -3.13951,-0.623318 -4.74805,-0.433594 -5.26815,-0.335285 -10.53683,-0.635187 -15.79688,-1.068359 -5.57373,-0.459004 -9.94662,-0.890229 -15.54101,-1.507813 -2.8922,-0.319279 -5.77999,-0.672121 -8.66992,-1.007812 -0.99469,-0.122326 -1.98972,-0.246135 -2.98438,-0.369141 z"
         id="path16042" />
      <path
         style="color:#000000;display:inline;overflow:visible;visibility:visible;fill:#000000;fill-opacity:1;fill-rule:nonzero;stroke:none;enable-background:accumulate"
         id="path16048"
         d="m 488.66037,116.57743 c 4.8474,-0.10836 9.67661,0.47291 14.47374,0.94891 12.27233,1.36723 24.51366,2.94326 36.81171,4.13301 3.11036,0.30091 6.22562,0.56366 9.33842,0.84549 14.39821,1.24376 28.86455,1.81935 43.282,2.87741 2.47578,0.0694 4.93286,0.556 7.42155,0.47935 0.42171,-0.0134 1.03467,-0.0247 1.41281,-0.33817 0.0457,-0.0379 0.0285,-0.11375 0.0427,-0.17062 -0.20704,-0.42159 -0.0611,-0.92741 -0.21246,-1.36661 -0.0564,-0.16372 -0.16475,-0.30335 -0.24714,-0.45502 0,0 0.0254,-0.0458 0.0254,-0.0458 l 0,0 c 0.46195,0.005 0.92415,-0.0346 1.35422,0.17717 0.77671,0.38331 1.14787,1.28233 0.98674,2.13393 -0.0624,0.32981 -0.2528,0.62633 -0.37919,0.93949 -0.26027,0.24229 -0.48021,0.53764 -0.78081,0.72687 -0.65978,0.41532 -1.56221,0.53452 -2.29805,0.57773 -2.53383,0.1488 -5.0513,-0.28083 -7.5681,-0.36351 -14.44009,-0.98845 -28.91244,-1.66249 -43.32651,-2.89862 -3.12145,-0.28852 -6.2454,-0.55789 -9.36435,-0.86557 -12.29487,-1.21284 -24.53261,-2.81081 -36.80074,-4.20574 -7.10058,-0.7687 -1.77726,-0.20186 -7.96119,-0.83937 -1.89663,-0.19554 -3.8208,-0.34727 -5.69833,-0.67056 -0.23092,-0.0398 -0.45736,-0.0991 -0.68604,-0.1487 0,0 0.17364,-1.4711 0.17364,-1.4711 z"
         inkscape:connector-curvature="0" />
      <path
         style="color:#000000;display:inline;overflow:visible;visibility:visible;fill:#000000;fill-opacity:1;fill-rule:nonzero;stroke:none;enable-background:accumulate"
         id="path16054"
         d="m 605.00445,90.566796 c -0.13759,2.204333 -0.33604,4.403316 -0.47298,6.608788 -0.26747,4.955286 -0.41326,9.918766 -0.63795,14.877056 -0.21203,4.17737 -0.53472,8.34473 -0.82118,12.51523 -0.0954,1.07375 -0.12859,2.16029 -0.26839,3.22867 -0.0377,0.28774 -0.11467,0.73972 -0.20914,0.74096 -0.1406,0.002 -0.25498,-0.13706 -0.38247,-0.20558 0.0193,0.02 0.0385,0.04 0.0578,0.06 0,0 0.0397,0.0208 0.0397,0.0208 l 0,0 c -0.05,0.19132 -0.10012,0.38264 -0.15018,0.57397 -0.18741,-0.0753 -0.39842,-0.0979 -0.56225,-0.22607 -0.22754,-0.17799 -0.33454,-0.79923 -0.36156,-1.02606 -0.13156,-1.10472 0.0143,-2.23064 0.0249,-3.33434 0.24462,-4.16049 0.59727,-8.3109 0.80207,-12.47502 0.22995,-4.97736 0.36566,-9.96174 0.67475,-14.933099 0.17953,-2.232729 0.37107,-4.475014 0.82994,-6.65799 0,0 1.43703,0.232633 1.43703,0.232633 z"
         inkscape:connector-curvature="0" />
      <path
         style="color:#000000;display:inline;overflow:visible;visibility:visible;fill:#000000;fill-opacity:1;fill-rule:nonzero;stroke:none;enable-background:accumulate"
         id="path16060"
         d="m 603.81902,89.55632 c 1.31561,-1.17579 2.85094,-2.045742 4.43724,-2.796351 1.21594,-0.540287 2.48263,-0.970594 3.82458,-0.895463 0.47178,0.101805 0.90802,0.07493 1.37581,-0.0045 0.17694,-0.01521 0.40105,-0.08856 0.47828,0.123374 0,0 0.005,-0.05131 0.005,-0.05131 l 0,0 c 0.49241,0.188735 0.28046,0.376576 0.12287,0.763171 -0.47822,0.628474 -1.14601,1.020905 -1.93583,1.1191 -1.03384,0.140848 -2.04567,0.36565 -2.99651,0.817569 -1.50888,0.693675 -2.92636,1.540444 -4.37462,2.348252 0,0 -0.93648,-1.423879 -0.93648,-1.423879 z"
         inkscape:connector-curvature="0" />
      <path
         style="color:#000000;display:inline;overflow:visible;visibility:visible;fill:#000000;fill-opacity:1;fill-rule:nonzero;stroke:none;enable-background:accumulate"
         id="path16062"
         d="m 614.36551,87.41053 c -0.5091,3.555037 -1.12185,7.092807 -1.58627,10.655716 -0.64529,5.065524 -0.77667,10.171224 -0.78396,15.271094 -0.002,0.8139 -3.9e-4,2.13308 -0.022,2.9867 -0.0233,0.91756 0.0249,1.6643 -0.49379,2.43783 -0.22439,0.083 -0.43472,0.26834 -0.67317,0.24894 -0.43965,-0.0358 -0.66601,-0.90333 -0.81126,-1.23134 -0.15918,-0.16248 0.21974,0.20851 0.45237,0.0114 -0.11122,-0.38218 0.0177,-0.19909 0.11999,0.0553 0.0424,0.32642 0.008,0.65862 0.0105,0.98769 -0.008,0.28543 0.0324,0.5661 0.0735,0.8475 0.0382,0.61753 0.18026,0.48988 -0.14415,0.25113 -0.0393,-0.0428 0.39038,-0.19658 0.48223,-0.22876 0.10368,0.0395 0.10636,-0.0932 0.17222,-0.11191 0.64218,-0.18224 0.5455,0.32698 0.52623,1.16543 -0.003,0.11012 -0.64422,0.70394 -0.64921,0.70881 -1.40743,1.27949 -3.00306,2.32845 -4.56228,3.41019 -0.69284,0.45429 -1.34251,0.96764 -1.98275,1.49187 -0.27679,0.22663 -0.54297,0.50649 -0.87568,0.64808 -0.15718,-0.3283 -0.0564,-0.2028 -0.51325,-0.47951 -0.0602,-0.0365 0.0986,0.14865 0.16646,0.12999 0.1018,-0.028 0.14205,-0.15624 0.21307,-0.23435 0,0 0.0398,0.0327 0.0398,0.0327 l 0,0 c -0.066,0.0882 -0.14615,0.16746 -0.19797,0.26469 -0.0709,0.13292 -0.0191,0.39121 -0.16693,0.41992 -0.67779,0.13159 -0.66091,-0.35899 -0.75025,-0.73309 0.0316,-0.15529 0.0369,-0.31839 0.0948,-0.46588 0.49,-1.24675 1.89926,-1.90294 2.88436,-2.67677 1.53913,-1.02342 3.09411,-2.02298 4.61404,-3.07508 0.31397,-0.20647 0.60864,-0.40818 0.62996,-0.38512 0.20876,0.2258 0.21572,1.15599 0.71578,0.85843 0.0386,-0.0229 -0.11844,-0.0856 -0.12255,-0.0558 -0.28882,0.0477 -0.58012,0.0896 -0.87189,0.10811 -0.52541,-0.22386 -0.52024,-0.43578 -0.5498,-0.9398 -0.0304,-0.31696 -0.0841,-0.63213 -0.0921,-0.95088 0.002,-0.2879 -0.004,-0.58505 0.0552,-0.86731 0.26518,0.32606 -0.1097,-0.22233 -0.0598,-0.37514 0.0869,-0.57203 0.78571,-0.66981 0.97165,-0.0969 0.0646,0.16658 0.1353,0.34789 0.24256,0.49278 0.0239,0.0323 0.12667,0.0937 0.0883,0.0818 -0.44876,-0.1384 0.20107,-0.31028 -0.64981,0.14556 -0.0265,0.0111 -0.0662,0.0588 -0.0795,0.0333 -0.13701,-0.26254 -0.17826,-1.64906 -0.19516,-1.8622 -0.14292,-1.80256 -0.0852,-0.9839 -0.19366,-3.01537 -0.1695,-5.20893 -0.0195,-10.42387 0.65414,-15.597919 0.46967,-3.540758 1.07046,-7.056713 1.69972,-10.571889 0,0 2.12028,0.209928 2.12028,0.209928 z"
         inkscape:connector-curvature="0" />
      <path
         style="color:#000000;display:inline;overflow:visible;visibility:visible;fill:#000000;fill-opacity:1;fill-rule:nonzero;stroke:none;enable-background:accumulate"
         id="path16064"
         d="m 486.13927,78.651362 c 2.4299,-0.820316 4.84767,-1.692708 7.25737,-2.600981 2.69463,-1.018357 5.35298,-2.225955 8.13016,-2.849779 0.79699,-0.08846 1.63563,-0.206455 2.42563,0.04053 0.6561,0.205128 0.088,0.155874 0.60375,0.170634 0.0537,-0.0084 0.10745,-0.01689 0.16117,-0.02533 0,0 0.007,0.05348 0.007,0.05348 l 0,0 c -0.0525,0.01132 -0.10496,0.02264 -0.15743,0.03396 -0.52746,0.296522 0.12354,-0.102714 -0.51635,0.446135 -0.65346,0.560492 -1.46724,0.749103 -2.20129,1.067492 -2.68163,0.915412 -5.34621,1.900931 -7.99355,2.961841 -2.46116,0.925547 -4.93176,1.882504 -7.48008,2.358099 0,0 -0.23577,-1.656087 -0.23577,-1.656087 z"
         inkscape:connector-curvature="0" />
      <path
         inkscape:connector-curvature="0"
         style="color:#000000;display:inline;overflow:visible;visibility:visible;fill:#000000;fill-opacity:1;fill-rule:nonzero;stroke:none;enable-background:accumulate"
         d="m 501.60742,73.361328 -0.26172,1.820313 c 5.8594,1.092478 11.83592,1.558927 17.76758,2.173828 4.70432,0.468078 9.39835,1.005969 14.08984,1.570312 l 0.42774,-2.488281 c -4.73888,-0.56667 -9.4814,-1.107277 -14.23438,-1.566406 -5.92064,-0.57544 -11.84481,-1.19427 -17.78906,-1.509766 z m 56.66406,6.302734 -0.21093,2.529297 c 0.6541,0.09139 1.30885,0.179729 1.96289,0.271485 8.98705,1.252311 17.97068,2.551253 27.0039,3.478515 5.03318,0.516658 5.74416,0.529926 10.60743,0.873047 4.76521,0.12018 9.60609,0.647328 14.36523,0.04297 0.70707,-0.181822 0.7608,-0.275459 0.94922,-0.923828 l -0.0508,-0.285156 c -0.16406,-0.645358 -0.27117,-0.699167 -0.97071,-0.833985 -4.6881,-0.252641 -9.40023,-0.07673 -14.08007,-0.513672 -4.63343,-0.347631 -5.72037,-0.400193 -10.50196,-0.890625 -9.0081,-0.92393 -17.96979,-2.202573 -26.93164,-3.453125 -0.71399,-0.09959 -1.42852,-0.195649 -2.14258,-0.294922 z"
         id="path16070" />
      <path
         style="color:#000000;display:inline;overflow:visible;visibility:visible;fill:#000000;fill-opacity:1;fill-rule:nonzero;stroke:none;enable-background:accumulate"
         id="path16083"
         d="m 541.05314,90.913809 c -0.33818,2.473239 -0.71502,4.941174 -1.02792,7.418543 -0.38594,3.282568 -0.59628,6.589948 -0.52058,9.896008 0.0132,0.57717 0.0465,1.15371 0.0697,1.73056 0.0967,1.34559 0.15771,2.69409 0.31936,4.0342 0.0922,0.76444 0.24018,1.51125 0.29446,2.27936 -0.0194,0.13724 -0.0388,0.27447 -0.0582,0.41171 0,0 -0.0252,0.005 -0.0252,0.005 l 0,0 c -0.0757,-0.11982 -0.15132,-0.23965 -0.22699,-0.35948 -0.0572,-0.18756 -0.12671,-0.37181 -0.17162,-0.56269 -0.063,-0.26769 -0.26516,-1.51305 -0.29749,-1.70979 -0.22157,-1.34829 -0.44733,-2.69819 -0.52711,-4.06446 -0.0935,-1.59079 -0.14122,-2.03829 -0.14537,-3.6652 -0.007,-2.70576 0.20559,-5.40677 0.51702,-8.092921 0.31271,-2.491431 0.60656,-5.000001 1.19424,-7.444291 0,0 0.6057,0.122951 0.6057,0.122951 z"
         inkscape:connector-curvature="0" />
      <path
         style="color:#000000;display:inline;overflow:visible;visibility:visible;fill:#ffffff;fill-opacity:1;fill-rule:nonzero;stroke:none;enable-background:accumulate"
         d="m 539.2389,68.827566 c -1.78851,-0.02197 -3.31547,1.222588 -4.26729,2.642112 -1.74639,2.620843 -1.96602,5.973662 -1.41059,8.999449 0.56394,2.888159 1.79136,5.727364 3.8517,7.864535 0.36995,0.398359 1.0129,-0.0629 0.83097,-0.547516 -0.24726,-0.737365 -0.70449,-1.428021 -0.68931,-2.237028 -0.0818,-1.113582 0.87619,-1.962482 1.87989,-2.214616 1.50144,-0.456872 3.31098,-0.255177 4.41804,0.948309 0.39134,0.356668 0.53645,0.876511 0.78837,1.315827 0.39018,0.379324 0.86919,-0.06872 1.12961,-0.374964 0.48677,-0.548385 1.26573,-0.738448 1.96404,-0.575212 0.55375,-0.07519 1.11539,-0.223062 1.67624,-0.07211 1.02976,0.296064 2.03628,0.847166 2.62028,1.776553 0.67919,0.939759 0.57792,2.283135 -0.16462,3.156446 -0.48801,0.644757 -1.2066,1.128654 -2.02633,1.194961 -0.39755,0.05866 -0.93332,0.421754 -0.65538,0.873551 0.3068,0.444237 0.93827,0.19762 1.38043,0.151158 1.97833,-0.497657 3.63634,-1.795362 5.13502,-3.125178 2.27473,-2.024598 4.2139,-4.656152 4.67443,-7.733111 0.16741,-1.825035 0.0951,-3.774845 -0.857,-5.397047 -1.13261,-2.064011 -3.4456,-3.239078 -5.7447,-3.378897 -1.15663,-0.09919 -2.37659,-0.02357 -3.39191,0.597289 -1.44174,0.772891 -2.06792,2.429682 -2.29572,3.961331 0.0149,0.263499 -0.11237,0.409383 -0.39527,0.35817 -0.2373,-0.01471 -0.54203,0.141584 -0.65346,-0.138474 -0.15402,-0.161501 -0.41376,-0.155301 -0.59345,-0.08448 -0.43011,-0.463474 -0.78124,-0.986315 -1.00198,-1.582861 -0.89854,-2.107775 -1.96417,-4.320423 -3.92401,-5.639365 -0.67412,-0.444076 -1.45634,-0.773878 -2.278,-0.738826 z"
         id="path16281"
         inkscape:connector-curvature="0" />
      <path
         style="color:#000000;display:inline;overflow:visible;visibility:visible;fill:#000000;fill-opacity:1;fill-rule:nonzero;stroke:none;enable-background:accumulate"
         id="path16089"
         d="m 555.73106,91.39376 c -0.25859,1.381571 -0.47441,2.770168 -0.67173,4.161641 -0.4539,3.48331 -0.6861,6.990259 -0.90936,10.494329 -0.0363,0.71185 -0.0778,1.42345 -0.10884,2.13555 -0.0601,1.37633 -0.10152,2.70349 -0.1094,4.08038 -0.009,1.63347 0.043,3.26453 0.0252,4.89803 -0.13588,1.46833 -0.11228,0.77969 -0.0998,2.06474 0,0 -0.0256,0.003 -0.0256,0.003 l 0,0 c -0.24674,-1.26887 -0.0941,-0.59078 -0.47742,-2.02976 -0.0642,-0.47465 -0.14824,-0.94703 -0.19258,-1.42395 -0.094,-1.01115 -0.1237,-2.52698 -0.12872,-3.52258 -0.0105,-2.08907 0.0641,-4.17769 0.17449,-6.26349 0.21312,-3.53107 0.4408,-7.065676 0.90536,-10.574294 0.21332,-1.416365 0.42801,-2.841887 0.85873,-4.211996 0,0 0.75965,0.1888 0.75965,0.1888 z"
         inkscape:connector-curvature="0" />
      <path
         style="color:#000000;display:inline;overflow:visible;visibility:visible;fill:#000000;fill-opacity:1;fill-rule:nonzero;stroke:none;enable-background:accumulate"
         id="path15980"
         d="m 545.03452,90.955331 c -1.52958,1.112723 -3.54517,1.424511 -5.35883,0.848886 -0.5265,-0.167105 -1.00947,-0.448919 -1.51419,-0.673379 -0.49873,-0.362105 -1.03228,-0.68054 -1.49615,-1.086315 -2.1624,-1.891554 -3.66324,-4.545865 -4.54374,-7.253081 -0.23118,-0.710788 -0.37681,-1.446605 -0.56523,-2.169907 -0.49267,-2.794993 -0.39974,-5.666694 0.6787,-8.32361 0.65457,-1.612644 0.93187,-1.796834 1.9601,-3.15268 0.43685,-0.385335 0.83287,-0.822619 1.31054,-1.156003 1.39374,-0.972731 3.08967,-1.429911 4.77793,-1.115598 1.41079,0.262653 1.81354,0.672054 2.99412,1.415854 1.79822,1.584666 3.25999,3.642177 3.90723,5.977882 0.0915,0.330073 0.1289,0.672779 0.19336,1.009168 0.11493,0.975848 -0.36512,1.505365 -0.99348,2.150458 0,0 -0.0539,-0.01034 -0.0539,-0.01034 l 0,0 c -0.0985,-0.159917 -0.17753,-0.333643 -0.29557,-0.479749 -0.84414,-1.044865 -0.1456,0.155652 -0.77179,-1.051097 -0.8373,-2.004606 -1.69284,-4.043653 -3.35953,-5.517775 -0.69357,-0.492281 -0.98043,-0.792275 -1.80858,-1.017625 -1.51786,-0.413031 -2.86771,0.291654 -3.94926,1.310604 -0.28636,0.357096 -0.60905,0.687884 -0.85911,1.071289 -1.60575,2.462086 -1.7933,5.481881 -1.39363,8.31208 0.14753,0.637053 0.25737,1.284029 0.44261,1.911156 0.83662,2.832428 2.33869,5.512531 4.72303,7.306717 0.35177,0.187013 0.68626,0.411038 1.05534,0.561039 1.36281,0.553869 2.77874,0.301508 4.12306,-0.149547 0,0 0.79694,1.281615 0.79694,1.281615 z"
         inkscape:connector-curvature="0" />
      <path
         style="color:#000000;display:inline;overflow:visible;visibility:visible;fill:#000000;fill-opacity:1;fill-rule:nonzero;stroke:none;enable-background:accumulate"
         id="path15990"
         d="m 546.79235,77.489758 c -0.22567,-1.607184 0.0138,-3.312155 0.91694,-4.694332 0.21835,-0.334182 0.50275,-0.620207 0.75411,-0.930313 0.32842,-0.255258 0.62989,-0.549597 0.98526,-0.765775 1.52414,-0.927157 3.40635,-1.075625 5.13499,-0.819397 0.44865,0.06651 0.88664,0.191606 1.32995,0.287409 2.24386,0.665548 4.20256,1.986996 5.37334,4.055471 0.23805,0.420581 0.40404,0.878051 0.60607,1.317076 0.79514,2.35606 0.78514,4.878129 0.0336,7.247994 -0.14954,0.471537 -0.35442,0.923707 -0.53163,1.385561 -1.38385,2.948959 -3.70586,5.219035 -6.21719,7.219794 -1.84226,1.299981 -3.98907,2.421269 -6.32196,2.137641 -0.3973,-0.0483 -0.78019,-0.178918 -1.17027,-0.268376 -1.5459,-0.599135 -2.99017,-1.649196 -3.64891,-3.227641 -0.10058,-0.240785 -0.14736,-0.500585 -0.22104,-0.750878 -0.0976,-0.885963 0.37468,-1.262191 1.03543,-1.712076 0,0 0.0517,0.01807 0.0517,0.01807 l 0,0 c 0.0848,0.123252 0.14256,0.270531 0.25456,0.369752 0.12373,0.109612 0.28926,0.16006 0.43389,0.240089 0.081,0.08327 0.16229,0.166534 0.24344,0.249801 0.64194,0.967473 1.37411,1.863518 2.48046,2.318218 0.21534,0.06334 0.42506,0.15045 0.64598,0.19003 1.70292,0.305055 3.29542,-0.671792 4.64619,-1.569067 2.19271,-1.685585 4.22577,-3.61507 5.4715,-6.126929 0.14915,-0.367312 0.3203,-0.726434 0.44741,-1.101936 0.62104,-1.834564 0.7014,-3.793778 0.1591,-5.655034 -0.13322,-0.327925 -0.24187,-0.666942 -0.39967,-0.983777 -0.79492,-1.596163 -2.19163,-2.606188 -3.87362,-3.120189 -1.80511,-0.424966 -3.69378,-0.620477 -5.28188,0.533044 -0.17902,0.178259 -0.3774,0.338983 -0.53707,0.534778 -0.81605,1.000801 -1.01379,2.293554 -1.20066,3.528638 0,0 -1.60006,0.09235 -1.60006,0.09235 z"
         inkscape:connector-curvature="0" />
      <path
         style="color:#000000;display:inline;overflow:visible;visibility:visible;fill:#000000;fill-opacity:1;fill-rule:nonzero;stroke:none;enable-background:accumulate"
         id="path15992"
         d="m 540.74344,90.621034 c -1.57054,-0.07818 -2.71812,-1.213313 -2.93431,-2.76842 -0.0452,-0.324934 -0.007,-0.65608 -0.0103,-0.984118 0.2291,-1.468816 0.98219,-2.911065 2.48553,-3.403775 0.25792,-0.08454 0.53379,-0.09868 0.8007,-0.14802 1.51331,0.007 2.71688,0.886532 3.14966,2.356681 0.0861,0.292271 0.10296,0.600595 0.15431,0.900893 -3.8e-4,1.480289 -0.49257,3.148672 -1.98164,3.791902 -0.27991,0.120911 -0.59194,0.146609 -0.8879,0.219915 -0.31929,-0.0441 -0.65056,-0.0351 -0.95788,-0.132303 -1.47752,-0.467382 -2.35091,-1.977643 -3.02665,-3.254325 -0.57497,-1.218588 -0.69037,-2.586405 0.40708,-3.563404 0.20357,-0.181243 0.45427,-0.301347 0.68143,-0.45202 1.31423,-0.588934 2.81422,-0.727156 4.16928,-0.162224 0.2772,0.11556 0.52843,0.285552 0.79265,0.428329 0.22837,0.207188 0.48523,0.386767 0.68509,0.621565 0.83082,0.976034 0.97934,2.287673 0.63328,3.490574 -0.0811,0.282371 -0.2161,0.546477 -0.32413,0.819716 -0.60507,1.10709 -1.58081,2.335635 -3.00624,2.214791 -0.29749,-0.02522 -0.57474,-0.161975 -0.86212,-0.242963 -0.22954,-0.165935 -0.48122,-0.304908 -0.68862,-0.497805 -0.63287,-0.588641 -1.16235,-1.591634 -1.24714,-2.45956 -0.0215,-0.218647 0.0119,-0.439216 0.0179,-0.658823 0.25054,-0.786195 0.75675,-1.38507 1.66926,-1.163399 0.24556,0.05966 0.45054,0.228985 0.67581,0.343478 0,0 0.0138,0.05311 0.0138,0.05311 l 0,0 c -0.17078,0.413418 -0.43452,1.109037 -0.13291,0.920883 0.0255,-0.01587 0.0214,-0.05602 0.032,-0.08401 -0.0308,0.508672 0.3254,0.937611 0.52618,1.373631 -0.32769,0.580781 1.04855,-0.429855 0.94108,-0.684366 0.35753,-0.718978 0.58291,-1.489968 -0.0384,-2.131965 -0.83474,-0.547046 -1.77845,-0.645681 -2.72066,-0.289239 -0.0436,0.01853 -0.41903,0.120488 -0.44819,0.152512 -0.21924,0.240701 0.1252,0.775214 0.16246,0.984399 0.4299,0.889017 0.88288,1.884592 1.72175,2.459546 0.97506,0.09265 1.39614,-1.040503 1.44571,-1.845655 -0.0826,-0.850639 -0.34578,-1.643935 -1.30296,-1.769255 -1.10897,0.06194 -1.55249,0.833162 -1.79604,1.845419 -0.0764,1.062472 0.14482,2.009279 1.25503,2.388454 0,0 -0.0535,1.329855 -0.0535,1.329855 z"
         inkscape:connector-curvature="0" />
      <path
         style="color:#000000;display:inline;overflow:visible;visibility:visible;fill:#000000;fill-opacity:1;fill-rule:nonzero;stroke:none;enable-background:accumulate"
         id="path15996"
         d="m 542.72592,85.966966 c -0.10389,0.562644 0.0268,1.942347 -0.74738,2.150658 -0.26741,0.07195 -0.55182,-0.04736 -0.82772,-0.07105 -0.72446,-0.557929 -1.13751,-1.51518 -0.76264,-2.413946 0.0769,-0.18437 0.2093,-0.340328 0.31393,-0.51049 0.18539,-0.127266 0.34369,-0.308044 0.55612,-0.381798 1.24411,-0.431982 2.01609,0.739647 2.45391,1.682785 0.34889,0.989904 0.24296,2.490226 -1.11907,2.615492 -0.27698,0.02547 -0.54446,-0.114158 -0.81668,-0.171228 -0.17883,-0.145628 -0.38294,-0.264822 -0.53652,-0.436883 -0.58053,-0.650427 -0.73135,-1.816776 -0.0176,-2.446223 0.183,-0.161397 0.43895,-0.2133 0.65843,-0.31995 0.69332,-0.09054 1.19649,0.305598 1.81517,0.529006 0,0 -0.004,0.05473 -0.004,0.05473 l 0,0 c -0.5188,0.121487 -0.77257,0.14847 -0.91001,0.725518 0.1592,0.15497 0.19817,-0.104424 -0.12806,-0.05743 -0.33237,0.03565 -0.44057,-0.01584 -0.67505,0.292453 -0.20833,0.273912 0.14106,0.546297 0.0209,-0.054 -0.055,-0.156024 -0.29725,-0.552484 -0.27567,-0.607671 0.0397,-0.101626 0.48609,-0.07901 0.43841,-0.311074 -0.0839,-0.246701 -0.15012,0.430834 -0.15844,0.443934 -0.0216,0.03411 -0.0762,0.02666 -0.11434,0.03997 -0.40689,0.08199 -0.55942,-0.02212 -0.67327,0.385213 -0.0118,0.04176 0.0824,-0.0415 0.10274,-0.07979 0.19369,-0.36455 0.14823,-0.808179 0.28415,-1.190516 0,0 1.12259,0.132292 1.12259,0.132292 z"
         inkscape:connector-curvature="0" />
      <path
         style="color:#000000;display:inline;overflow:visible;visibility:visible;fill:#000000;fill-opacity:1;fill-rule:nonzero;stroke:none;enable-background:accumulate"
         id="path15998"
         d="m 551.0653,89.564965 c -0.58114,0.866801 -1.42919,1.765655 -2.48327,2.035746 -0.2352,0.06026 -0.48279,0.05197 -0.72419,0.07797 -0.25913,-0.09307 -0.54781,-0.127237 -0.77741,-0.279239 -1.24489,-0.824219 -1.02243,-2.562006 -0.77477,-3.792992 0.35142,-1.203082 1.17938,-2.383439 2.59365,-2.265749 0.25923,0.02156 0.50293,0.133235 0.75442,0.199854 1.09632,0.595282 1.90572,1.695399 1.88905,2.989354 -0.003,0.252035 -0.0718,0.498972 -0.10766,0.748457 -0.44291,1.177857 -1.45417,2.070456 -2.74854,2.168589 -0.24939,0.0189 -0.49952,-0.02676 -0.74929,-0.04013 -0.25062,-0.09803 -0.52308,-0.15237 -0.75185,-0.294106 -0.96782,-0.599645 -1.36789,-1.814649 -1.34196,-2.901586 0.006,-0.257111 0.0665,-0.510041 0.0999,-0.765061 0.0941,-0.23985 0.15081,-0.498055 0.28247,-0.719552 0.62945,-1.058969 1.86577,-1.377436 2.95563,-0.831465 0.24593,0.123213 0.44573,0.322496 0.66858,0.483745 0.69573,0.775175 1.69569,2.282097 0.81037,3.301038 -0.15353,0.17669 -0.38954,0.259657 -0.5843,0.389485 -0.18799,0.04009 -0.37598,0.08018 -0.56397,0.120273 0,0 -0.0416,-0.03586 -0.0416,-0.03586 l 0,0 c -0.0404,-0.130777 -0.0809,-0.261553 -0.12145,-0.392328 -0.0365,-0.04496 -0.38244,-0.452641 -0.43239,-0.569443 -0.15915,-0.372263 -0.0876,-0.841289 -0.42851,-1.1453 -0.26389,-0.325143 -0.18842,-0.74564 -0.53382,-0.240867 -0.1515,0.536651 -0.25909,1.289813 0.17435,1.725171 0.5788,0.147534 1.14139,-0.116127 1.46631,-0.612303 0.22064,-0.602068 -0.0659,-1.220211 -0.54211,-1.61599 -0.58353,-0.45002 -0.75446,0.209451 -0.96695,0.705876 -0.17456,0.663676 -0.21003,1.308712 -0.20463,1.98803 0.78677,0.340658 1.78503,-0.706904 2.41482,-1.09035 0,0 0.7691,0.658717 0.7691,0.658717 z"
         inkscape:connector-curvature="0" />
      <path
         style="color:#000000;display:inline;overflow:visible;visibility:visible;fill:#000000;fill-opacity:1;fill-rule:nonzero;stroke:none;enable-background:accumulate"
         id="path16002"
         d="m 535.34476,63.413405 c 0.9385,-1.544252 2.48722,-2.667943 4.28356,-2.995275 0.45006,-0.08201 0.91254,-0.06616 1.36879,-0.09922 1.36973,0.121578 2.68209,0.54067 3.63502,1.593677 1.73621,1.918524 -0.3535,0.322893 1.43492,1.56514 0,0 -0.0291,0.04645 -0.0291,0.04645 l 0,0 c -0.27126,-0.153599 -0.51462,-0.373182 -0.81378,-0.460795 -0.36471,-0.106812 -0.75984,-0.04803 -1.13483,-0.109865 -1.00375,-0.16553 -1.961,-0.574703 -2.98276,-0.653302 -0.31345,0.0095 -0.62977,-0.01515 -0.94032,0.02823 -1.3324,0.18617 -2.42908,1.01357 -3.24458,2.040615 0,0 -1.57683,-0.955653 -1.57683,-0.955653 z"
         inkscape:connector-curvature="0" />
      <path
         style="color:#000000;display:inline;overflow:visible;visibility:visible;fill:#000000;fill-opacity:1;fill-rule:nonzero;stroke:none;enable-background:accumulate"
         id="path16004"
         d="m 549.4893,63.767609 c 0.16038,-1.634968 1.11436,-3.179697 2.51694,-4.059041 0.33427,-0.209562 0.71236,-0.339355 1.06854,-0.509032 0.3926,-0.07132 0.77902,-0.200095 1.17781,-0.213977 1.7081,-0.05945 3.22618,0.979705 3.88685,2.542319 0.16554,0.391527 0.21729,0.82193 0.32592,1.232894 0.0103,0.429239 0.0211,0.858479 0.0316,1.287716 0,0 -0.0512,0.01984 -0.0512,0.01984 l 0,0 c -0.2661,-0.28408 -0.53222,-0.568162 -0.79833,-0.852243 -0.82381,-0.764025 -1.86114,-1.936016 -3.07744,-2.02831 -0.19968,-0.01515 -0.39954,0.02816 -0.59931,0.04225 -0.20885,0.07964 -0.42939,0.133616 -0.62653,0.238941 -1.01216,0.540756 -1.57342,1.549345 -2.06392,2.536268 0,0 -1.79102,-0.237614 -1.79102,-0.237614 z"
         inkscape:connector-curvature="0" />
      <path
         style="color:#000000;display:inline;overflow:visible;visibility:visible;fill:#000000;fill-opacity:1;fill-rule:nonzero;stroke:none;enable-background:accumulate"
         id="path16006"
         d="m 547.13109,89.597407 c -1.38846,0.02958 -2.63397,-0.746856 -2.71997,-2.249637 -0.0176,-0.306217 0.0745,-0.608885 0.1118,-0.913329 0.47893,-1.354772 1.71125,-2.685209 3.30514,-2.17163 0.29661,0.09559 0.54288,0.306155 0.81432,0.459233 1.32238,1.349162 1.64043,3.204438 1.61519,5.025429 -0.14751,1.188962 -0.90218,2.33643 -2.29752,1.873174 -0.65618,-0.217847 -0.90101,-0.748601 -1.25501,-1.262101 -0.60219,-1.317991 -0.93394,-2.869047 -0.47649,-4.291958 0.0846,-0.263217 0.22719,-0.504157 0.34074,-0.756235 0.17792,-0.211185 0.32221,-0.456041 0.53373,-0.633552 1.26508,-1.061713 2.69474,-0.568352 3.96756,0.120401 1.18935,0.799859 2.07113,2.026363 1.81392,3.530883 -0.0499,0.291781 -0.18311,0.563002 -0.27466,0.844504 -0.62201,1.088068 -1.843,2.281471 -3.2399,1.808212 -0.26725,-0.09055 -0.48254,-0.292675 -0.72381,-0.439012 -0.1459,-0.208107 -0.32499,-0.396521 -0.43768,-0.624321 -0.35426,-0.716071 -0.31939,-1.924209 0.40064,-2.432152 0.22176,-0.156451 0.50676,-0.194501 0.76014,-0.291752 0.68365,0.250845 0.94201,0.135755 1.09232,0.919928 0.0413,0.215754 -0.08,0.438957 -0.0528,0.656935 0.0179,0.142648 0.12266,0.260044 0.184,0.390065 0,0 -0.0476,0.02733 -0.0476,0.02733 l 0,0 c -0.0792,-0.114617 -0.10986,-0.288357 -0.2377,-0.343863 -0.22235,-0.09659 -1.15354,0.169251 -0.40725,0.319921 0.22492,-0.121195 0.54784,-0.342888 0.36271,-0.399272 -0.0283,-0.0086 -0.1497,0.186416 -0.18925,0.05027 -0.026,-0.0016 -0.30692,-0.06115 -0.33053,0.0616 -0.0526,0.274239 0.97902,-0.517653 0.79152,-0.491851 0.42495,-0.754323 0.10181,-1.166851 -0.55321,-1.662892 -0.17239,-0.105618 -1.04525,-0.596465 -1.27775,-0.529544 -0.0614,0.01769 -0.10836,0.06794 -0.16251,0.101882 -0.56271,0.882559 -0.30503,2.007512 0.0185,2.935254 0.20697,0.515626 0.0446,0.222113 -0.31893,0.537106 -0.26499,0.22958 -0.0927,0.52044 0.0424,-0.06871 0.0481,-1.161775 -0.12046,-2.348038 -0.74508,-3.352965 -0.41068,-0.689198 -0.85161,0.0039 -1.11596,0.447628 -0.35709,0.942074 -0.16752,1.083449 0.79986,1.490528 0,0 -0.091,1.314483 -0.091,1.314483 z"
         inkscape:connector-curvature="0" />
      <path
         style="color:#000000;display:inline;overflow:visible;visibility:visible;fill:#000000;fill-opacity:1;fill-rule:nonzero;stroke:none;enable-background:accumulate"
         id="path16091"
         d="m 570.60731,90.953939 c -0.38662,2.126484 -0.68902,4.264824 -0.9472,6.410288 -0.44371,3.905553 -0.51673,7.844063 -0.36953,11.769533 0.0342,0.91198 0.0943,1.8228 0.14143,2.73421 0.59377,8.56032 -0.21032,-2.9115 0.35735,4.83242 0.0456,0.62146 0.1061,1.24241 0.1235,1.86529 0.0688,2.46376 -0.16837,0.47206 0.0984,2.31794 0,0 -0.0254,0.004 -0.0254,0.004 l 0,0 c -0.61894,-3.16782 0.47231,2.22509 -0.61727,-2.25449 -0.53426,-2.19649 -0.62053,-4.48058 -0.83788,-6.71913 -0.047,-0.92001 -0.10734,-1.83944 -0.14109,-2.76004 -0.14551,-3.96959 -0.0769,-7.95679 0.4015,-11.90329 0.30331,-2.16279 0.5801,-4.344678 1.12589,-6.462087 0,0 0.69028,0.165046 0.69028,0.165046 z"
         inkscape:connector-curvature="0" />
      <path
         style="color:#000000;display:inline;overflow:visible;visibility:visible;fill:#000000;fill-opacity:1;fill-rule:nonzero;stroke:none;enable-background:accumulate"
         id="path16097"
         d="m 584.39184,93.616251 c -0.48324,1.49469 -0.86987,3.012262 -1.19467,4.548588 -0.70488,3.811211 -0.52322,7.705101 -0.35142,11.554721 0.1074,3.32038 0.61189,6.62234 0.57961,9.94673 0,0 -0.0252,0.005 -0.0252,0.005 l 0,0 c -0.11638,-0.27382 -0.25666,-0.53867 -0.34914,-0.82146 -0.30573,-0.93479 -0.42192,-1.76832 -0.55229,-2.75113 -0.27895,-2.10285 -0.44002,-4.22116 -0.57165,-6.3374 -0.18228,-3.92753 -0.36871,-7.90597 0.38802,-11.789285 0.35401,-1.570528 0.72245,-3.162867 1.40998,-4.627158 0,0 0.66681,0.271314 0.66681,0.271314 z"
         inkscape:connector-curvature="0" />
      <path
         style="color:#000000;display:inline;overflow:visible;visibility:visible;fill:#000000;fill-opacity:1;fill-rule:nonzero;stroke:none;enable-background:accumulate"
         id="path16105"
         d="m 496.0911,86.037629 c -0.77263,1.353802 -0.8931,2.975123 -1.07574,4.490133 -0.29242,3.116351 -0.37151,6.254797 -0.23363,9.382109 0.0287,0.649979 0.0781,1.298889 0.11709,1.948329 0.14975,1.82266 0.35396,3.64328 0.6635,5.44637 0.24538,1.42934 0.58226,2.84162 0.85751,4.2653 0.10462,0.32537 0.20924,0.65074 0.31385,0.97611 0,0 -0.0237,0.01 -0.0237,0.01 l 0,0 c -0.16105,-0.30673 -0.3221,-0.61346 -0.48316,-0.92019 -0.19398,-0.38792 -0.41576,-0.76315 -0.58196,-1.16376 -0.38986,-0.93976 -0.67721,-2.04162 -0.89371,-3.02848 -0.39943,-1.82075 -0.61943,-3.67359 -0.75868,-5.53072 -0.0398,-0.659 -0.0901,-1.31745 -0.11939,-1.976989 -0.14111,-3.172655 -0.0668,-6.356946 0.23752,-9.518094 0.20168,-1.644519 0.31254,-3.529797 1.36665,-4.891675 0,0 0.6139,0.511577 0.6139,0.511577 z"
         inkscape:connector-curvature="0" />
    </g>
    <text
       transform="matrix(0.90648747,0.08593816,0,1.1031592,0,0)"
       sodipodi:linespacing="119.00001%"
       id="text15952"
       y="370.84531"
       x="252.51341"
       style="font-style:normal;font-variant:normal;font-weight:bold;font-stretch:normal;font-size:21.34703636px;line-height:119.00000572%;font-family:'Nimbus Mono L';-inkscape-font-specification:'Nimbus Mono L Bold';letter-spacing:3.23999882px;word-spacing:0px;display:inline;fill:#000000;fill-opacity:1;stroke:none"
       xml:space="preserve"><tspan
         y="370.84531"
         x="252.51341"
         id="tspan15954"
         sodipodi:role="line">XXXXXXX</tspan></text>
  </g>
</svg>
